<svg width="45" height="25" viewBox="0 0 45 25" fill="none" xmlns="http://www.w3.org/2000/svg">
<g clip-path="url(#clip0_2_253)">
<g clip-path="url(#clip1_2_253)">
<path d="M16.4213 18.7779C12.9437 17.103 11.1766 16.9214 9.3056 16.7292C7.46113 16.5408 5.55144 16.3411 1.9376 14.6263C1.66909 15.106 1.44735 16.0376 1.2688 17.1668C4.98429 18.3131 6.86519 18.2252 8.67953 18.1363C10.515 18.0469 12.4117 17.9548 16.1222 19.1196C17.3779 19.5141 18.3557 19.9023 19.1334 20.2781C18.4425 19.8261 17.5632 19.3278 16.4213 18.7779Z" fill="#41B64D"/>
<path d="M15.9794 20.2866C12.3507 19.1468 10.5787 19.2325 8.70135 19.3241C6.85283 19.4146 4.93819 19.504 1.17278 18.3471C1.05135 19.2277 0.953297 20.1812 0.875488 21.1017C4.5487 21.6176 6.36979 21.2444 8.12656 20.8802C9.93505 20.506 11.8052 20.1189 15.6138 20.695C17.1034 20.9207 18.2255 21.1954 19.0913 21.4936C18.3227 21.1108 17.3175 20.7067 15.9794 20.2866Z" fill="#41B64D"/>
<path d="M8.22247 22.0584C6.42747 22.4295 4.56815 22.8102 0.823432 22.2874C0.746973 23.2962 0.694351 24.2285 0.666016 24.92C4.42828 24.8886 6.20349 24.238 7.92203 23.6077C9.67656 22.9646 11.4904 22.2996 15.3292 22.2996C16.6272 22.2996 17.6562 22.3773 18.4888 22.5056C17.7233 22.2767 16.7662 22.0632 15.5442 21.8785C11.8201 21.3142 10.0723 21.6756 8.22247 22.0584Z" fill="#41B64D"/>
<path d="M36.472 18.1502C38.2904 18.238 40.1745 18.3274 43.9079 17.1732C43.7235 15.945 43.5014 14.9926 43.2427 14.6268C39.6096 16.3549 37.6954 16.5535 35.8455 16.743C33.9745 16.9352 32.2069 17.1157 28.7294 18.7922C27.5874 19.3427 26.7072 19.841 26.0168 20.2941C26.7945 19.9177 27.7727 19.5285 29.0298 19.1345C32.7394 17.9686 34.637 18.0612 36.472 18.1502Z" fill="#41B64D"/>
<path d="M42.9622 13.5232L39.0249 0.0654297C36.1753 1.40439 34.6555 1.55985 33.1852 1.71051C31.6821 1.86437 30.2627 2.00972 27.4701 3.35506C23.5972 5.22162 23.3872 6.38755 23.2747 7.01417C23.2203 7.31497 23.156 7.65144 22.8079 7.87079V23.1637C22.8097 23.1605 22.8133 23.1573 22.8155 23.153C22.8317 23.1253 22.8461 23.0918 22.8605 23.0551C22.8897 22.9709 22.9118 22.8698 22.9387 22.7223C23.1141 21.7475 23.4074 20.1157 28.5221 17.6524C32.077 15.9381 33.9692 15.7448 35.7992 15.5569C37.5947 15.3732 39.4509 15.1837 42.9622 13.5232Z" fill="#41B64D"/>
<path d="M37.0235 20.8941C38.7821 21.2583 40.6041 21.6304 44.2831 21.1145C44.2058 20.1615 44.1109 19.2144 43.9984 18.3546C40.2213 19.5174 38.3026 19.4284 36.4492 19.3374C34.5719 19.2464 32.8002 19.1607 29.1711 20.3005C27.8331 20.7211 26.8283 21.1252 26.0579 21.509C26.9241 21.2109 28.0467 20.9362 29.5363 20.7104C33.344 20.1328 35.2159 20.5198 37.0235 20.8941Z" fill="#41B64D"/>
<path d="M37.2289 23.6221C38.947 24.2519 40.7227 24.903 44.4849 24.9349C44.4525 24.131 44.4004 23.2244 44.3338 22.3007C40.5855 22.8251 38.7239 22.4439 36.9285 22.0723C35.0786 21.6895 33.3313 21.3285 29.6068 21.8923C28.3857 22.0776 27.4281 22.2916 26.6631 22.5195C27.4951 22.3928 28.5238 22.3134 29.8218 22.3134C33.6609 22.3134 35.4748 22.9789 37.2289 23.6221Z" fill="#41B64D"/>
<path d="M22.2127 22.7094C22.2275 22.7914 22.2401 22.8579 22.2536 22.9191V7.87117C21.9055 7.65183 21.8412 7.31536 21.7872 7.01456C21.6743 6.38793 21.4647 5.222 17.5914 3.35545C14.7988 2.0101 13.3793 1.86476 11.8767 1.7109C10.406 1.56023 8.88712 1.40424 6.03833 0.0663452L2.18701 13.5081C5.69966 15.1697 7.55628 15.3603 9.35308 15.544C11.1827 15.7319 13.0744 15.9257 16.6298 17.6384C21.7445 20.1023 22.0377 21.7346 22.2127 22.7094Z" fill="#41B64D"/>
</g>
</g>
<defs>
<clipPath id="clip0_2_253">
<rect width="43.819" height="24.8695" fill="white" transform="translate(0.666016 0.0654297)"/>
</clipPath>
<clipPath id="clip1_2_253">
<rect width="43.819" height="24.8695" fill="white" transform="translate(0.666016 0.0654297)"/>
</clipPath>
</defs>
</svg>
